<svg xmlns="http://www.w3.org/2000/svg" viewBox="0 0 207.81 153.30" fill="currentColor"><g transform="translate(-317.0385,-220.9894)"><path transform="matrix(1,0,0,-1,463.4336,270.298)" d="M0 0C-4.668-4.18-16.917-13.154-38.181-15.631-59.587-18.123-80.729-27.771-86.396-55.808-86.545-56.55-85.622-57.026-85.112-56.466-81.301-52.277-71.281-43.1-53.885-39.28-31.682-34.405-9.845-31.793 1.198-.812 1.457-.085 .575 .515 0 0"/><path transform="matrix(1,0,0,-1,471.4505,245.9296)" d="M0 0V24.247H-30.753C-98.937 24.247-154.412-31.227-154.412-99.412V-128.174H-130.165V-99.412C-130.165-44.596-85.569 0-30.753 0Z"/><path transform="matrix(1,0,0,-1,500.6043,250.62839)" d="M0 0C0-54.816-44.596-99.412-99.412-99.412H-130.165V-123.659H-99.412C-31.227-123.659 24.247-68.185 24.247 0V29.639H0Z"/></g></svg>